<?xml version="1.0" encoding="UTF-8"?>
<svg width="1005px" height="345px" viewBox="0 0 1005 345" version="1.1" xmlns="http://www.w3.org/2000/svg" xmlns:xlink="http://www.w3.org/1999/xlink">
    <!-- Generator: Sketch 62 (91390) - https://sketch.com -->
    <title>Artboard</title>
    <desc>Created with Sketch.</desc>
    <g id="Artboard" stroke="none" stroke-width="1" fill="none" fill-rule="evenodd">
        <g id="Group" transform="translate(110.000000, 126.000000)" stroke="#000000" stroke-linecap="round" stroke-linejoin="round" stroke-width="13">
            <rect id="Rectangle" x="0" y="0.5" width="51" height="51" rx="5"></rect>
            <line x1="51" y1="0.5" x2="51" y2="102.5" id="Line-Copy"></line>
            <line x1="111" y1="0.5" x2="111" y2="102.5" id="Line-Copy-2"></line>
            <line x1="50.5" y1="52" x2="110.5" y2="52" id="Line-2"></line>
        </g>
        <circle id="Oval" stroke="#000000" stroke-width="7" cx="172.5" cy="172.5" r="169"></circle>
        <path d="M409.45,160 L409.45,135.325 L418.9,135.325 C421.6,135.325 424.0625,135.025 426.2875,134.425 C428.5125,133.825 430.4125,132.9375 431.9875,131.7625 C433.5625,130.5875 434.7875,129.1125 435.6625,127.3375 C436.5375,125.5625 436.975,123.475 436.975,121.075 C436.975,118.675 436.55,116.5875 435.7,114.8125 C434.85,113.0375 433.6375,111.5625 432.0625,110.3875 C430.4875,109.2125 428.6,108.3375 426.4,107.7625 C424.2,107.1875 421.75,106.9 419.05,106.9 L419.05,106.9 L404.05,106.9 L404.05,160 L409.45,160 Z M418.6,130.75 L409.45,130.75 L409.45,111.55 L418.6,111.55 C422.7,111.55 425.8875,112.3125 428.1625,113.8375 C430.4375,115.3625 431.575,117.775 431.575,121.075 C431.575,124.225 430.475,126.625 428.275,128.275 C426.075,129.925 422.85,130.75 418.6,130.75 L418.6,130.75 Z M477.925,160 L483.7,146.05 L511.15,146.05 L517,160 L523,160 L500.2,106.9 L494.95,106.9 L472,160 L477.925,160 Z M509.125,141.1 L485.725,141.1 L497.425,112.9 L509.125,141.1 Z M571.45,160 L571.45,114.325 L571.6,114.325 L602.5,160 L609.25,160 L609.25,106.9 L603.85,106.9 L603.85,152.125 L603.7,152.125 L572.8,106.9 L566.05,106.9 L566.05,160 L571.45,160 Z M683.425,161.35 C687.375,161.35 691.0375,160.65 694.4125,159.25 C697.7875,157.85 700.7125,155.9125 703.1875,153.4375 C705.6625,150.9625 707.6,148.025 709,144.625 C710.4,141.225 711.1,137.5 711.1,133.45 C711.1,129.4 710.4,125.675 709,122.275 C707.6,118.875 705.6625,115.9375 703.1875,113.4625 C700.7125,110.9875 697.7875,109.05 694.4125,107.65 C691.0375,106.25 687.375,105.55 683.425,105.55 C679.475,105.55 675.8125,106.25 672.4375,107.65 C669.0625,109.05 666.1375,110.9875 663.6625,113.4625 C661.1875,115.9375 659.25,118.875 657.85,122.275 C656.45,125.675 655.75,129.4 655.75,133.45 C655.75,137.5 656.45,141.225 657.85,144.625 C659.25,148.025 661.1875,150.9625 663.6625,153.4375 C666.1375,155.9125 669.0625,157.85 672.4375,159.25 C675.8125,160.65 679.475,161.35 683.425,161.35 Z M683.425,156.55 C680.025,156.55 676.9625,155.925 674.2375,154.675 C671.5125,153.425 669.2,151.75 667.3,149.65 C665.4,147.55 663.95,145.1 662.95,142.3 C661.95,139.5 661.45,136.55 661.45,133.45 C661.45,130.35 661.95,127.4 662.95,124.6 C663.95,121.8 665.4,119.3375 667.3,117.2125 C669.2,115.0875 671.5125,113.4 674.2375,112.15 C676.9625,110.9 680.025,110.275 683.425,110.275 C686.825,110.275 689.8875,110.9 692.6125,112.15 C695.3375,113.4 697.65,115.0875 699.55,117.2125 C701.45,119.3375 702.9,121.8 703.9,124.6 C704.9,127.4 705.4,130.35 705.4,133.45 C705.4,136.55 704.9,139.5 703.9,142.3 C702.9,145.1 701.45,147.55 699.55,149.65 C697.65,151.75 695.3375,153.425 692.6125,154.675 C689.8875,155.925 686.825,156.55 683.425,156.55 Z M771.025,161.35 C773.125,161.35 775.2125,161.05 777.2875,160.45 C779.3625,159.85 781.2125,158.925 782.8375,157.675 C784.4625,156.425 785.7875,154.8375 786.8125,152.9125 C787.8375,150.9875 788.35,148.7 788.35,146.05 C788.35,143.4 787.875,141.2125 786.925,139.4875 C785.975,137.7625 784.75,136.3375 783.25,135.2125 C781.75,134.0875 780.0625,133.175 778.1875,132.475 C776.3125,131.775 774.45,131.125 772.6,130.525 C771.1,130.025 769.6625,129.525 768.2875,129.025 C766.9125,128.525 765.6875,127.8875 764.6125,127.1125 C763.5375,126.3375 762.675,125.4 762.025,124.3 C761.375,123.2 761.05,121.8 761.05,120.1 C761.05,118.4 761.3875,116.925 762.0625,115.675 C762.7375,114.425 763.625,113.3875 764.725,112.5625 C765.825,111.7375 767.05,111.125 768.4,110.725 C769.75,110.325 771.075,110.125 772.375,110.125 C774.925,110.125 777.1,110.6125 778.9,111.5875 C780.7,112.5625 782.175,113.85 783.325,115.45 L783.325,115.45 L787.6,112 C786.3,110.25 784.375,108.7375 781.825,107.4625 C779.275,106.1875 776.2,105.55 772.6,105.55 C770.65,105.55 768.675,105.825 766.675,106.375 C764.675,106.925 762.85,107.8 761.2,109 C759.55,110.2 758.2125,111.725 757.1875,113.575 C756.1625,115.425 755.65,117.625 755.65,120.175 C755.65,122.575 756.0625,124.6 756.8875,126.25 C757.7125,127.9 758.8,129.2875 760.15,130.4125 C761.5,131.5375 763.025,132.45 764.725,133.15 C766.425,133.85 768.15,134.475 769.9,135.025 C771.6,135.575 773.225,136.125 774.775,136.675 C776.325,137.225 777.7,137.9125 778.9,138.7375 C780.1,139.5625 781.0625,140.5875 781.7875,141.8125 C782.5125,143.0375 782.875,144.575 782.875,146.425 C782.875,148.125 782.5125,149.6125 781.7875,150.8875 C781.0625,152.1625 780.1375,153.2375 779.0125,154.1125 C777.8875,154.9875 776.625,155.6375 775.225,156.0625 C773.825,156.4875 772.45,156.7 771.1,156.7 C768.3,156.7 765.8625,156.0625 763.7875,154.7875 C761.7125,153.5125 760.1,151.925 758.95,150.025 L758.95,150.025 L754.3,153.475 C755.25,154.775 756.35,155.925 757.6,156.925 C758.85,157.925 760.2,158.75 761.65,159.4 C763.1,160.05 764.625,160.5375 766.225,160.8625 C767.825,161.1875 769.425,161.35 771.025,161.35 Z M412.3,240 L412.3,216.45 L437.125,216.45 L437.125,240 L446.575,240 L446.575,186.9 L437.125,186.9 L437.125,208.35 L412.3,208.35 L412.3,186.9 L402.85,186.9 L402.85,240 L412.3,240 Z M497.65,240 L502.45,227.85 L525.475,227.85 L530.425,240 L541.225,240 L518.35,186.9 L510.175,186.9 L487.075,240 L497.65,240 Z M522.175,219.75 L505.675,219.75 L514,198.15 L522.175,219.75 Z M591.175,240 L591.175,218.025 L598.45,218.025 C601.25,218.025 603.9,217.75 606.4,217.2 C608.9,216.65 611.0875,215.7625 612.9625,214.5375 C614.8375,213.3125 616.325,211.7 617.425,209.7 C618.525,207.7 619.075,205.225 619.075,202.275 C619.075,199.525 618.6,197.175 617.65,195.225 C616.7,193.275 615.35,191.675 613.6,190.425 C611.85,189.175 609.75,188.275 607.3,187.725 C604.85,187.175 602.1,186.9 599.05,186.9 L599.05,186.9 L581.725,186.9 L581.725,240 L591.175,240 Z M597.775,210.075 L591.175,210.075 L591.175,194.85 L598.075,194.85 C599.525,194.85 600.9375,194.9375 602.3125,195.1125 C603.6875,195.2875 604.9125,195.65 605.9875,196.2 C607.0625,196.75 607.925,197.5125 608.575,198.4875 C609.225,199.4625 609.55,200.725 609.55,202.275 C609.55,203.875 609.225,205.175 608.575,206.175 C607.925,207.175 607.05,207.9625 605.95,208.5375 C604.85,209.1125 603.6,209.5125 602.2,209.7375 C600.8,209.9625 599.325,210.075 597.775,210.075 L597.775,210.075 Z M676.975,241.35 C679.575,241.35 682.05,241 684.4,240.3 C686.75,239.6 688.8,238.55 690.55,237.15 C692.3,235.75 693.7,233.9875 694.75,231.8625 C695.8,229.7375 696.325,227.25 696.325,224.4 C696.325,221.8 695.8375,219.625 694.8625,217.875 C693.8875,216.125 692.6375,214.675 691.1125,213.525 C689.5875,212.375 687.9125,211.45 686.0875,210.75 C684.2625,210.05 682.5,209.425 680.8,208.875 C679.3,208.425 677.925,207.975 676.675,207.525 C675.425,207.075 674.3625,206.55 673.4875,205.95 C672.6125,205.35 671.925,204.625 671.425,203.775 C670.925,202.925 670.675,201.9 670.675,200.7 C670.675,199.4 670.9625,198.2875 671.5375,197.3625 C672.1125,196.4375 672.85,195.6875 673.75,195.1125 C674.65,194.5375 675.65,194.1125 676.75,193.8375 C677.85,193.5625 678.95,193.425 680.05,193.425 C681.9,193.425 683.7375,193.8625 685.5625,194.7375 C687.3875,195.6125 688.8,196.7 689.8,198 L689.8,198 L695.95,191.25 C693.9,189.35 691.4875,187.925 688.7125,186.975 C685.9375,186.025 683.2,185.55 680.5,185.55 C678.1,185.55 675.7375,185.8625 673.4125,186.4875 C671.0875,187.1125 669.0125,188.0625 667.1875,189.3375 C665.3625,190.6125 663.8875,192.225 662.7625,194.175 C661.6375,196.125 661.075,198.45 661.075,201.15 C661.075,203.65 661.475,205.7375 662.275,207.4125 C663.075,209.0875 664.1125,210.5 665.3875,211.65 C666.6625,212.8 668.1,213.725 669.7,214.425 C671.3,215.125 672.9,215.725 674.5,216.225 C675.49,216.555 676.453,216.876 677.389,217.188 L679.225,217.8 C680.725,218.3 682.025,218.8875 683.125,219.5625 C684.225,220.2375 685.1,221.0375 685.75,221.9625 C686.4,222.8875 686.725,224.05 686.725,225.45 C686.725,226.9 686.4375,228.1125 685.8625,229.0875 C685.2875,230.0625 684.5375,230.875 683.6125,231.525 C682.6875,232.175 681.65,232.6375 680.5,232.9125 C679.35,233.1875 678.225,233.325 677.125,233.325 C675.025,233.325 672.8875,232.8 670.7125,231.75 C668.5375,230.7 666.8,229.275 665.5,227.475 L665.5,227.475 L658.75,233.775 C660.85,236.275 663.55,238.1625 666.85,239.4375 C670.15,240.7125 673.525,241.35 676.975,241.35 Z M750.475,240 L750.475,186.9 L741.025,186.9 L741.025,240 L750.475,240 Z M816.25,240 C819.7,240 823.175,239.4875 826.675,238.4625 C830.175,237.4375 833.325,235.85 836.125,233.7 C838.925,231.55 841.2,228.8 842.95,225.45 C844.7,222.1 845.575,218.1 845.575,213.45 C845.575,208.45 844.7,204.2625 842.95,200.8875 C841.2,197.5125 838.925,194.7875 836.125,192.7125 C833.325,190.6375 830.175,189.15 826.675,188.25 C823.175,187.35 819.7,186.9 816.25,186.9 L816.25,186.9 L797.425,186.9 L797.425,240 L816.25,240 Z M814.75,231.75 L806.875,231.75 L806.875,195 L814.75,195 C817.2,195 819.65,195.25 822.1,195.75 C824.55,196.25 826.7625,197.175 828.7375,198.525 C830.7125,199.875 832.325,201.75 833.575,204.15 C834.825,206.55 835.45,209.65 835.45,213.45 C835.45,217.05 834.825,220.025 833.575,222.375 C832.325,224.725 830.7125,226.5875 828.7375,227.9625 C826.7625,229.3375 824.55,230.3125 822.1,230.8875 C819.65,231.4625 817.2,231.75 814.75,231.75 L814.75,231.75 Z M926.5,240 L926.5,231.6 L899.425,231.6 L899.425,216.6 L923.8,216.6 L923.8,208.65 L899.425,208.65 L899.425,195.15 L925.15,195.15 L925.15,186.9 L889.975,186.9 L889.975,240 L926.5,240 Z M985.225,241.35 C987.825,241.35 990.3,241 992.65,240.3 C995,239.6 997.05,238.55 998.8,237.15 C1000.55,235.75 1001.95,233.9875 1003,231.8625 C1004.05,229.7375 1004.575,227.25 1004.575,224.4 C1004.575,221.8 1004.0875,219.625 1003.1125,217.875 C1002.1375,216.125 1000.8875,214.675 999.3625,213.525 C997.8375,212.375 996.1625,211.45 994.3375,210.75 C992.5125,210.05 990.75,209.425 989.05,208.875 C987.55,208.425 986.175,207.975 984.925,207.525 C983.675,207.075 982.6125,206.55 981.7375,205.95 C980.8625,205.35 980.175,204.625 979.675,203.775 C979.175,202.925 978.925,201.9 978.925,200.7 C978.925,199.4 979.2125,198.2875 979.7875,197.3625 C980.3625,196.4375 981.1,195.6875 982,195.1125 C982.9,194.5375 983.9,194.1125 985,193.8375 C986.1,193.5625 987.2,193.425 988.3,193.425 C990.15,193.425 991.9875,193.8625 993.8125,194.7375 C995.6375,195.6125 997.05,196.7 998.05,198 L998.05,198 L1004.2,191.25 C1002.15,189.35 999.7375,187.925 996.9625,186.975 C994.1875,186.025 991.45,185.55 988.75,185.55 C986.35,185.55 983.9875,185.8625 981.6625,186.4875 C979.3375,187.1125 977.2625,188.0625 975.4375,189.3375 C973.6125,190.6125 972.1375,192.225 971.0125,194.175 C969.8875,196.125 969.325,198.45 969.325,201.15 C969.325,203.65 969.725,205.7375 970.525,207.4125 C971.325,209.0875 972.3625,210.5 973.6375,211.65 C974.9125,212.8 976.35,213.725 977.95,214.425 C979.55,215.125 981.15,215.725 982.75,216.225 C983.74,216.555 984.703,216.876 985.639,217.188 L987.475,217.8 C988.975,218.3 990.275,218.8875 991.375,219.5625 C992.475,220.2375 993.35,221.0375 994,221.9625 C994.65,222.8875 994.975,224.05 994.975,225.45 C994.975,226.9 994.6875,228.1125 994.1125,229.0875 C993.5375,230.0625 992.7875,230.875 991.8625,231.525 C990.9375,232.175 989.9,232.6375 988.75,232.9125 C987.6,233.1875 986.475,233.325 985.375,233.325 C983.275,233.325 981.1375,232.8 978.9625,231.75 C976.7875,230.7 975.05,229.275 973.75,227.475 L973.75,227.475 L967,233.775 C969.1,236.275 971.8,238.1625 975.1,239.4375 C978.4,240.7125 981.775,241.35 985.225,241.35 Z" id="PANOSHAPSIDES" fill="#000000" fill-rule="nonzero"></path>
    </g>
</svg>